<?xml version="1.0" encoding="utf-8"?>
<!-- Generator: Adobe Illustrator 27.5.0, SVG Export Plug-In . SVG Version: 6.00 Build 0)  -->
<svg version="1.1" xmlns="http://www.w3.org/2000/svg" xmlns:xlink="http://www.w3.org/1999/xlink" x="0px" y="0px"
	 viewBox="0 0 600 600" style="enable-background:new 0 0 600 600;" xml:space="preserve">
<g id="background">
</g>
<g id="objects">
	<g>

		<g>
			<path style="fill:#262626;" d="M504.419,276.231c0-0.327-0.102-0.571-0.35-0.781C504.028,275.75,504.236,275.99,504.419,276.231z
				"/>
			<polygon style="fill:#262626;" points="504.42,276.238 504.425,276.239 504.419,276.231 			"/>
			<path style="fill:#262626;" d="M527.291,285.42c-1.285-1.374-2.516-2.77-2.937-3.339c-0.787-0.276-1.257-1.133-1.939-1.492
				l0.113-0.008c-0.655-0.463-3.584-3.865-4.325-4.424l0.051,0.124c-0.725-0.408-0.369-0.61-0.728-1.144
				c-0.228,0.345-0.876,0.022-1.083-0.141l0.07-0.056c-0.328-0.231-1.209-0.615-1.709-1.038l0.175-0.139
				c-0.553-0.216-1.206-1.009-1.499-1.269c-0.567-0.697-1.269-1.945-2.322-2.583l-0.099-0.993l-0.124-0.036
				c0,0-6.276,4.517-6.309,6.783l-0.174,0.139l0.241,0.201c0.188,0.342,0.492,0.283,0.318,0.421l-0.344-0.382
				c0.221,0.311-0.048,0.209-0.238,0.196c0.096,0.126,0.185,0.253,0.226,0.389c0.113-0.008,0.026-0.103,0.019-0.179
				c0.198,0.088,0.545,0.14,0.647,0.387c0.258,0.287-0.236,0.271,0.065,0.606c1.556,1.798,3,3.604,4.73,5.264
				c-0.026,0.103-0.07,0.055-0.148,0.035c0.578,0.443,1.008,0.921,1.543,1.316c0.059,0.199-0.002,0.331-0.029,0.434
				c0.053-0.207,2.71,2.426,2.718,2.502l0.315-0.25c0.507,0.499-0.177,0.47,0.358,0.865c0.582-0.218,0.731,0.814,1.104,0.762
				c-0.035,0.028,0.18,0.268,0.041,0.379c0.287-0.147,0.285,0.184,0.484,0.272c0.112-0.008,0.027-0.103,0.053-0.207l0.406,0.252
				c0.059,0.198-0.037,0.358-0.201,0.242c0.186,0.223,0.554,0.643,1.016,1.159c-1.256-0.168-7.275,1.046-10.3-1.36
				c-4.376-3.665-10.617-0.733-16.016-1.671c-1.35-0.235-2.784-0.069-4.398-0.142c-8.365-1.247-27.416,0.305-36.211,0.021
				c-2.331,0.011-4.379,0.9-6.342,1.388c-1.434,0.165-2.966-0.306-4.131-0.305c-1.833,0.008-3.41,0.345-4.921,0.767
				c1.689-0.176,2.922-0.433,4.804-0.578c1.255-0.059-0.873,1.231-1.704,1.502c-0.356,0.215-0.914-0.851-1.271-0.635
				c-0.774,0.001-1.484,0.432-2.315,0.703c-0.356,0.214-0.315-0.747-0.493-0.64c-1.132,0.218-2.005,1.45-2.729,1.187
				c-0.549-0.143-1.045-0.291-1.528-0.439c-0.306-0.053-0.609-0.096-0.932-0.058c-0.2,0.081-0.408,0.161-0.616,0.241
				c-1.491,0.563-3.21,1.071-4.808,1.484c0.006,0.027,0.015,0.057,0.021,0.086c0.935-0.098,1.846-0.01,2.817,0.574
				c-0.42-0.212-0.368-0.479,0.111-0.535c0.122,0.159,0.246,0.32,0.367,0.479c-0.833,0.27-1.665,0.542-2.453-0.15
				c0,0-0.357,0.215-0.533,0.323c-0.264-0.133-0.252-0.434-0.307-0.691c-0.182,0.018-0.367,0.045-0.552,0.076
				c0.389,0.478,1.616,1.093,1.616,1.093c2.361-0.039,4.584,0.008,6.754,0.102c0.167-0.188,0.284-0.404,0.508-0.292
				c0.169,0.167,0.34,0.272,0.51,0.342c0.317,0.015,0.634,0.032,0.948,0.05c0.11-0.021,0.221-0.048,0.334-0.075
				c0.001-0.001,0.007-0.003,0.009-0.005c0.178-0.109,0.125-0.257,0.015-0.398c-0.123-0.102-0.235-0.221-0.332-0.348
				c0.061,0.081,0.224,0.209,0.332,0.348c0.149,0.122,0.316,0.218,0.51,0.272c0.126-0.026,0.256-0.043,0.387-0.055
				c-0.096,0.018-0.194,0.042-0.293,0.066c-0.03-0.006-0.065-0.003-0.094-0.012c-0.145,0.031-0.284,0.068-0.424,0.104
				c-0.002,0-0.003,0.001-0.005,0.001c0,0,0.001,0,0.001,0c-0.035,0.009-0.072,0.017-0.107,0.026
				c-0.051,0.03-0.101,0.057-0.154,0.087c0.724,0.041,1.443,0.088,2.163,0.137c0.166-0.025,0.324-0.046,0.453-0.079
				c0.522-0.128,1.042-0.257,1.364,0.209c0.127,0.008,0.257,0.018,0.387,0.03c-0.024-0.03-0.05-0.053-0.075-0.086
				c0.057,0.029,0.106,0.061,0.145,0.091c0.543,0.04,1.088,0.081,1.636,0.124c1.068,0.083,2.148,0.166,3.251,0.247
				c7.097,0.612,13.642,0.503,21.005,0.955c3.989,0.277,19.099,0.689,22.857,1.251c7.495,1.119,14.332-0.167,21.905,2.255
				c1.827,0.534,4.637,0.55,7.168,0.464c-1.474,1.563-4.369,4.625-5.102,5.138c-0.418,0.197-0.373-0.263-0.401-0.298
				c-0.299,0.449,0.051,0.374-0.284,0.675c-0.123,0.051-0.139-0.175-0.119-0.252c-0.116,0.163-0.314,0.223-0.231,0.327
				c0.247-0.102,0.421,0.22,0.657,0.308l-0.431,0.388l-0.139-0.175c-0.096,0.086,0.197,0.66-0.289,0.978
				c-0.746,0.61-1.427,1.402-2.146,2.047c-0.083-0.105,0.004-0.303,0.093-0.502c-0.096,0.087-0.211,0.25-0.363,0.267
				c0.331,0.001-0.175,0.397,0.023,0.338c-0.116,0.883-1.112,1.179-1.293,1.88c0.306,0.383,4.978,6.866,5.388,7.276
				c-0.144,0.129-0.288,0.258-0.363,0.266c0.132,0.061,0.447-0.162,0.535-0.36l-0.195-0.244c0.252-0.406,0.208,0.053,0.514-0.283
				c0.197,0.163-0.06,0.497-0.303,0.774c0.255-0.213,0.62-0.316,0.518-0.608c0.295-0.145,0.195,0.244,0.537,0.056
				c0.136-0.242,0.208-0.666,0.532-0.777l0.028,0.036c0.713-0.342,0.535-1.08,1.2-1.379l0.008,0.112
				c0.274-0.066,0.47-0.542,0.889-0.738c-0.124,0.051-0.33-0.002-0.167-0.209c0.467-0.24,0.595-0.595,0.993-0.713l0.072-0.424
				c1.265-1.196,5.876-6.308,7.084-7.572l-0.02,0.077c0.898-0.986,2.317-2.442,3.724-3.925c1.106-1.158,2.214-2.319,3.236-3.39
				c1.182-1.251,2.225-2.382,3-3.279c0.853-0.506,1.553-1.288,2.227-1.865c-0.467,0.322-0.595,0.204-0.336-0.04
				c0.01-0.01,0.023-0.022,0.023-0.022c-1.651-1.687-0.349-0.108-2.188-1.799C531.891,290.12,529.572,287.789,527.291,285.42z
				 M441.979,293.282c0.517-0.171,1.185,0,1.724,0.468C443.034,294.155,442.471,293.763,441.979,293.282z M517.204,299.028
				c0.007-0.007-0.002-0.035-0.017-0.072c0.015-0.001,0.03-0.001,0.046-0.002L517.204,299.028z"/>
		</g>


	</g>
</g>
</svg>
